<svg width="656" height="568" xmlns="http://www.w3.org/2000/svg" xmlns:xlink="http://www.w3.org/1999/xlink" overflow="hidden"><defs><clipPath id="clip0"><rect x="334" y="76" width="656" height="568"/></clipPath></defs><g clip-path="url(#clip0)" transform="translate(-334 -76)"><path d="M837 489 837 242" stroke="#0000FF" stroke-width="2.49795" stroke-miterlimit="8" stroke-dasharray="9.99181 7.49386" fill="none" fill-rule="evenodd"/><path d="M393 519 393 99" stroke="#000000" stroke-width="2.49795" stroke-miterlimit="8" fill="none" fill-rule="evenodd"/><path d="M383 104 393.004 76 403 104 383 104Z" fill-rule="evenodd"/><path d="M334 490 902 490" stroke="#000000" stroke-width="2.49795" stroke-miterlimit="8" fill="none" fill-rule="evenodd"/><path d="M898 480 925 490.004 898 500 898 480Z" fill-rule="evenodd"/><path d="M600 558 925 122" stroke="#FF0000" stroke-width="2.49795" stroke-miterlimit="8" fill="none" fill-rule="evenodd"/><path d="M334 565C334 565 632.796 515.037 836.589 241.858 882.232 180.676 926 102 926 102" stroke="#0000FF" stroke-width="2.49795" stroke-miterlimit="8" fill="none" fill-rule="evenodd"/><text font-family="Cambria Math,Cambria Math_MSFontService,sans-serif" font-weight="400" font-size="21" transform="translate(672.913 479)">(<tspan font-size="21" x="8.83337" y="0">𝑥</tspan><tspan font-size="15" x="19.96" y="4">𝑛</tspan><tspan font-size="15" x="30.3934" y="4">+</tspan><tspan font-size="15" x="41.7267" y="4">1</tspan><tspan font-size="15" x="50.7267" y="4">,</tspan><tspan font-size="21" x="54.78" y="0">0</tspan><tspan font-size="21" x="66.6133" y="0">)</tspan><tspan font-size="21" x="155.444" y="34">𝑥</tspan><tspan font-size="15" x="166.571" y="38">𝑛</tspan><tspan font-size="21" x="-24.4991" y="34">𝑥</tspan><tspan font-size="15" x="-13.3724" y="38">𝑛</tspan><tspan font-size="15" x="-2.93909" y="38">+</tspan><tspan font-size="15" x="8.39423" y="38">1</tspan><tspan font-size="21" x="49.8431" y="-227">(</tspan><tspan font-size="21" x="58.6764" y="-227">𝑥</tspan><tspan font-size="15" x="69.803" y="-222">𝑛</tspan><tspan font-size="21" x="81.123" y="-227">,</tspan><tspan font-size="21" x="89.0097" y="-227">𝑓</tspan><tspan font-size="21" x="101.303" y="-227">(</tspan><tspan font-size="21" x="110.136" y="-227">𝑥</tspan><tspan font-size="15" x="121.263" y="-222">𝑛</tspan><tspan font-size="21" x="132.583" y="-227">)</tspan><tspan font-size="21" x="141.416" y="-227">)</tspan><tspan font-size="21" x="-221.146" y="-166">𝑦</tspan><tspan font-size="21" x="-202.853" y="-166">=</tspan><tspan font-size="21" x="-180.926" y="-166">𝑓</tspan></text><path d="M525.78 296.904C527.776 297.431 529.309 298.567 530.379 300.314 531.449 302.06 531.984 304.167 531.984 306.635 531.984 309.11 531.451 311.217 530.384 312.957 529.318 314.696 527.783 315.829 525.78 316.356L525.534 315.566C527.113 315.04 528.287 314.001 529.056 312.449 529.825 310.897 530.21 308.925 530.21 306.533 530.21 304.222 529.827 302.303 529.061 300.775 528.296 299.247 527.11 298.22 525.503 297.694ZM512.33 296.904 512.607 297.694C511.007 298.22 509.823 299.247 509.054 300.775 508.284 302.303 507.9 304.222 507.9 306.533 507.9 308.925 508.284 310.897 509.054 312.449 509.823 314.001 510.997 315.04 512.576 315.566L512.33 316.356C510.327 315.829 508.792 314.696 507.726 312.957 506.659 311.217 506.126 309.11 506.126 306.635 506.126 304.167 506.661 302.06 507.731 300.314 508.801 298.567 510.334 297.431 512.33 296.904Z" fill-rule="evenodd"/><text font-family="Cambria Math,Cambria Math_MSFontService,sans-serif" font-weight="400" font-size="21" transform="translate(513.134 313)">𝑥</text><text font-family="Cambria Math,Cambria Math_MSFontService,sans-serif" font-weight="400" font-size="21" transform="matrix(0.592661 -0.805452 0.805452 0.592661 860.21 250)">Slope<tspan font-size="21" x="55.8894" y="0.0274067">=</tspan><tspan font-size="21" x="78.0893" y="-0.173553">𝑓′</tspan><tspan font-size="21" x="95.3953" y="-0.276134">(</tspan><tspan font-size="21" x="104.136" y="-0.208088">𝑥</tspan><tspan font-size="15" x="114.955" y="4.37158">𝑛</tspan><tspan font-size="21" x="126.519" y="-0.160881">)</tspan></text><path d="M828 243C828 239.134 831.134 236 835 236 838.866 236 842 239.134 842 243 842 246.866 838.866 250 835 250 831.134 250 828 246.866 828 243Z" fill-rule="evenodd"/><path d="M643 490.5C643 486.91 646.134 484 650 484 653.866 484 657 486.91 657 490.5 657 494.09 653.866 497 650 497 646.134 497 643 494.09 643 490.5Z" fill-rule="evenodd"/></g></svg>